<?xml version="1.0" encoding="UTF-8"?>
<svg id="Capa_1" data-name="Capa 1" xmlns="http://www.w3.org/2000/svg" viewBox="0 0 709.86 292.75">
  <defs>
    <style>
      .cls-1 {
        fill: none;
      }

      .cls-1, .cls-2, .cls-3, .cls-4, .cls-5 {
        stroke-width: 0px;
      }

      .cls-2 {
        fill: #9d9d9c;
      }

      .cls-3 {
        fill: #e25574;
      }

      .cls-4 {
        fill: #1d1d1b;
      }

      .cls-5 {
        fill: #79c1c0;
      }
    </style>
  </defs>
  <g>
    <circle class="cls-3" cx="264.48" cy="43.58" r="42.27"/>
    <path class="cls-5" d="M303.8,104.64c-9.4,0-16.18,3.93-20.2,7.23-10.07,8.25-22.44,12.46-34.88,12.46-9.7,0-19.45-2.56-28.17-7.76-14.17-8.45-30.42-13.02-47-13.2-27.88-.31-51.13-21.43-54.09-49.16C116.2,23.74,90.6.77,59.9.77,26.87.77,0,27.64,0,60.67c0,25.93,17.3,49.45,42.08,57.2,26.57,8.31,42.74,35.17,37.67,62.54-1.05,5.64-1.58,11.45-1.58,17.26,0,52,42.31,94.31,94.31,94.31,22.42,0,44.16-8.05,61.22-22.66,16.92-14.49,28.22-34.43,31.82-56.14,3.78-22.82,21.44-40.84,44.18-45.09,15.12-2.82,26.09-16.05,26.09-31.46,0-17.64-14.35-32-32-32ZM172.48,239.94c-23.34,0-42.27-18.92-42.27-42.27s18.92-42.27,42.27-42.27,42.27,18.92,42.27,42.27-18.92,42.27-42.27,42.27Z"/>
  </g>
  <path class="cls-1" d="M558.58,234.06c-3.08-1.96-6.63-2.94-10.65-2.94s-7.56.98-10.64,2.94c-3.08,1.96-5.51,4.67-7.28,8.12-1.78,3.46-2.66,7.42-2.66,11.91s.89,8.61,2.66,12.12c1.77,3.5,4.2,6.26,7.28,8.27,3.08,2.01,6.63,3.01,10.64,3.01s7.43-1,10.51-3.01c3.08-2.01,5.51-4.76,7.28-8.27,1.77-3.5,2.66-7.54,2.66-12.12s-.86-8.45-2.59-11.91c-1.73-3.45-4.13-6.16-7.21-8.12Z"/>
  <g>
    <path class="cls-2" d="M484.07,270.34c-3.18,0-5.72,1.05-7.64,3.15-1.91,2.1-2.87,4.79-2.87,8.05,0,3.55.91,6.3,2.73,8.27,1.82,1.96,4.41,2.94,7.77,2.94,3.17,0,5.72-1.05,7.63-3.15,1.91-2.1,2.87-4.78,2.87-8.05,0-3.64-.91-6.42-2.73-8.33-1.82-1.91-4.41-2.87-7.77-2.87Z"/>
    <rect class="cls-2" x="600.93" y="217.39" width="17.23" height="73.82" rx="2.78" ry="2.78"/>
    <path class="cls-2" d="M704.82,234.48c-3.32-5.79-7.87-10.34-13.66-13.66-5.79-3.31-12.33-4.97-19.61-4.97s-13.96,1.66-19.75,4.97c-5.79,3.32-10.36,7.87-13.73,13.66-3.36,5.79-5.04,12.37-5.04,19.75s1.68,13.96,5.04,19.75c3.36,5.79,7.93,10.34,13.73,13.66,5.79,3.32,12.37,4.97,19.75,4.97s13.82-1.66,19.61-4.97c5.79-3.31,10.34-7.87,13.66-13.66,3.31-5.79,4.97-12.37,4.97-19.75s-1.66-13.96-4.97-19.75ZM689.7,265.99c-1.82,3.46-4.3,6.21-7.43,8.26-3.13,2.06-6.7,3.08-10.71,3.08s-7.63-1.03-10.86-3.08c-3.22-2.05-5.72-4.81-7.49-8.26-1.78-3.45-2.66-7.37-2.66-11.77s.89-8.33,2.66-11.84c1.77-3.5,4.27-6.25,7.49-8.26,3.22-2.01,6.84-3.01,10.86-3.01s7.59,1,10.71,3.01c3.13,2.01,5.6,4.74,7.43,8.19,1.82,3.46,2.68,7.42,2.59,11.91.09,4.39-.77,8.31-2.59,11.77Z"/>
    <path class="cls-2" d="M568.6,220.75c-5.09-3.27-10.95-4.9-17.58-4.9-2.99,0-5.93.49-8.82,1.47-2.9.98-5.56,2.29-7.98,3.92-2.43,1.63-4.46,3.46-6.09,5.46-.02.03-.04.06-.07.09v-26.91c-6.93,3.4-13.2,4.73-17.23,5.26v83c0,1.53,1.24,2.78,2.78,2.78h11.18c1.51,0,2.74-1.2,2.78-2.71l.15-6.18c1.6,1.87,3.52,3.58,5.81,5.11,2.52,1.68,5.34,3.01,8.47,3.99,3.13.98,6.32,1.47,9.59,1.47,6.35,0,12.07-1.66,17.16-4.97,5.09-3.31,9.08-7.87,11.97-13.66,2.89-5.79,4.34-12.42,4.34-19.89s-1.47-13.96-4.41-19.75c-2.94-5.79-6.96-10.32-12.05-13.59ZM565.73,266.2c-1.78,3.5-4.2,6.26-7.28,8.27-3.08,2.01-6.58,3.01-10.51,3.01s-7.56-1-10.64-3.01c-3.08-2.01-5.51-4.76-7.28-8.27-1.78-3.5-2.66-7.54-2.66-12.12s.89-8.45,2.66-11.91c1.77-3.45,4.2-6.16,7.28-8.12,3.08-1.96,6.63-2.94,10.64-2.94s7.56.98,10.65,2.94c3.08,1.96,5.48,4.67,7.21,8.12,1.73,3.46,2.59,7.42,2.59,11.91s-.89,8.61-2.66,12.12Z"/>
  </g>
  <g>
    <path class="cls-4" d="M394.24,100.32c5.94,3.28,12.79,4.91,20.55,4.91,3.46,0,6.97-.47,10.53-1.4,3.55-.93,6.94-2.22,10.17-3.86,2.34-1.18,4.49-2.55,6.45-4.1,1.24-.98,1.54-2.74.62-4.03l-5.21-7.27c-.95-1.32-2.81-1.59-4.11-.61-2.5,1.9-4.86,3.29-7.08,4.15-2.9,1.12-6.08,1.68-9.54,1.68-4.96,0-9.29-.96-12.98-2.88-3.7-1.92-6.55-4.65-8.56-8.21-1.35-2.38-2.21-5.07-2.65-8h51.66c1.58,0,2.86-1.26,2.9-2.84l.07-3.2c.09-5.24-.68-10.08-2.31-14.52-1.64-4.44-4-8.28-7.09-11.5-3.09-3.23-6.74-5.77-10.94-7.65-4.21-1.87-8.75-2.81-13.61-2.81-5.52,0-10.59.96-15.22,2.88-4.63,1.92-8.61,4.63-11.93,8.14-3.32,3.51-5.92,7.65-7.79,12.42-1.87,4.77-2.81,10.06-2.81,15.85,0,7.3,1.66,13.77,4.98,19.43,3.32,5.66,7.95,10.13,13.89,13.4ZM394.45,53.81c1.59-3.32,3.95-5.87,7.08-7.65,3.13-1.78,6.99-2.67,11.58-2.67,2.99,0,5.73.63,8.21,1.89,2.48,1.26,4.51,2.99,6.1,5.19,1.59,2.2,2.53,4.75,2.81,7.65v.7h-37.45c.39-1.87.94-3.59,1.67-5.12Z"/>
    <path class="cls-4" d="M471.06,103.83h4.56c2.21,0,4-1.79,4-4v-40.62c0-2.24.44-4.3,1.33-6.17.89-1.87,2.11-3.53,3.65-4.98,1.54-1.45,3.37-2.57,5.47-3.37,2.11-.79,4.42-1.19,6.94-1.19,3.09-.09,5.71.45,7.86,1.61,2.15,1.17,3.74,2.99,4.77,5.47,1.03,2.48,1.54,5.59,1.54,9.33v39.92c0,2.21,1.79,4,4,4h9.26c2.21,0,4-1.79,4-4v-41.18c0-6.73-.96-12.35-2.88-16.84-1.92-4.49-4.77-7.86-8.56-10.1-3.79-2.25-8.49-3.37-14.1-3.37-3.93,0-7.76.84-11.5,2.53-3.74,1.68-6.97,3.91-9.68,6.67-.88.9-1.64,1.84-2.33,2.8l-.12-6.53c-.04-2.18-1.82-3.93-4-3.93h-8.91c-2.21,0-4,1.79-4,4v65.94c0,2.21,1.79,4,4,4h4.7Z"/>
    <path class="cls-4" d="M559.94,100.25c5.19,3.32,11.06,4.98,17.61,4.98,3.37,0,6.66-.54,9.89-1.61,3.23-1.07,6.06-2.5,8.49-4.28,2.08-1.52,3.81-3.18,5.24-4.98l.16,6.64c.04,1.57,1.33,2.83,2.9,2.83h10.07c2.1,0,3.8-1.7,3.8-3.8V3.8c0-2.1-1.7-3.8-3.8-3.8h-9.66c-2.1,0-3.8,1.7-3.8,3.8v34.59c-1.21-1.34-2.59-2.62-4.21-3.8-2.62-1.92-5.59-3.44-8.91-4.56-3.32-1.12-6.76-1.68-10.32-1.68-6.55,0-12.41,1.66-17.61,4.98-5.19,3.32-9.28,7.88-12.28,13.68-3,5.8-4.49,12.4-4.49,19.78s1.52,14.1,4.56,19.85c3.04,5.75,7.16,10.29,12.35,13.61ZM563.03,54.51c1.73-3.6,4.14-6.41,7.23-8.42,3.09-2.01,6.64-3.02,10.66-3.02s7.57,1.01,10.66,3.02c3.09,2.01,5.49,4.82,7.23,8.42,1.73,3.6,2.59,7.69,2.59,12.28s-.87,8.79-2.59,12.35c-1.73,3.56-4.14,6.36-7.23,8.42-3.09,2.06-6.64,3.09-10.66,3.09s-7.58-1.03-10.66-3.09c-3.09-2.06-5.5-4.86-7.23-8.42-1.73-3.55-2.6-7.67-2.6-12.35s.86-8.67,2.6-12.28Z"/>
    <path class="cls-4" d="M651.77,100.25c5.8,3.32,12.39,4.98,19.78,4.98s13.84-1.66,19.64-4.98c5.8-3.32,10.36-7.88,13.68-13.68,3.32-5.8,4.98-12.39,4.98-19.78s-1.66-13.98-4.98-19.78c-3.32-5.8-7.88-10.36-13.68-13.68-5.8-3.32-12.35-4.98-19.64-4.98s-13.98,1.66-19.78,4.98c-5.8,3.32-10.38,7.88-13.75,13.68-3.37,5.8-5.05,12.4-5.05,19.78s1.68,13.98,5.05,19.78c3.37,5.8,7.95,10.36,13.75,13.68ZM653.18,54.93c1.77-3.51,4.28-6.27,7.5-8.28,3.23-2.01,6.85-3.02,10.87-3.02s7.6,1.01,10.73,3.02c3.13,2.01,5.61,4.75,7.44,8.21,1.82,3.46,2.69,7.44,2.59,11.93.09,4.4-.77,8.33-2.59,11.79-1.83,3.46-4.3,6.22-7.44,8.28-3.13,2.06-6.71,3.09-10.73,3.09s-7.65-1.03-10.87-3.09c-3.23-2.06-5.73-4.82-7.5-8.28-1.78-3.46-2.67-7.39-2.67-11.79s.89-8.35,2.67-11.86Z"/>
    <path class="cls-4" d="M446.34,119.74h-11.2c-1.58,0-2.87,1.27-2.9,2.85l-.11,6.42c-.86-1.02-1.81-2.02-2.93-2.97-1.78-1.49-3.76-2.85-5.96-4.06-2.2-1.21-4.6-2.15-7.22-2.8-2.62-.65-5.32-.98-8.13-.98-6.72,0-12.77,1.66-18.14,4.97-5.37,3.32-9.6,7.85-12.68,13.59-3.08,5.74-4.62,12.31-4.62,19.69s1.56,13.89,4.69,19.55c3.13,5.65,7.38,10.11,12.75,13.38,5.37,3.27,11.56,4.9,18.56,4.9,4.02,0,7.94-.82,11.77-2.45,3.83-1.63,7.01-3.76,9.53-6.38.82-.85,1.49-1.71,2.1-2.59v6.93c0,4.67-.84,8.57-2.52,11.7-1.68,3.13-4.18,5.46-7.5,7.01-3.32,1.54-7.45,2.31-12.4,2.31-2.71,0-5.44-.28-8.2-.84-2.76-.56-5.35-1.35-7.78-2.38-1.41-.6-2.75-1.26-4-1.98-1.44-.83-3.27-.23-4,1.26l-3.7,7.65c-.64,1.33-.18,2.9,1.05,3.72,3.03,2.01,6.74,3.7,11.14,5.05,5.47,1.68,10.95,2.52,16.46,2.52,6.07,0,11.49-.82,16.25-2.45,4.76-1.64,8.83-4.06,12.19-7.29,3.36-3.22,5.93-7.12,7.7-11.7,1.77-4.58,2.66-9.86,2.66-15.83v-65.9c0-1.6-1.3-2.9-2.9-2.9ZM429.76,168.5c-1.78,3.46-4.27,6.16-7.5,8.13-3.22,1.96-6.93,2.94-11.14,2.94s-7.89-.98-11.07-2.94c-3.18-1.96-5.67-4.69-7.5-8.2-1.82-3.5-2.73-7.45-2.73-11.84s.91-8.48,2.73-11.98c1.82-3.5,4.32-6.26,7.5-8.27,3.17-2.01,6.86-3.01,11.07-3.01s7.89.98,11.07,2.94c3.17,1.96,5.67,4.69,7.49,8.2,1.82,3.5,2.73,7.54,2.73,12.12s-.89,8.46-2.66,11.91Z"/>
    <path class="cls-4" d="M526.58,128.5c-3.08-3.22-6.73-5.77-10.93-7.64-4.2-1.87-8.74-2.8-13.59-2.8-5.51,0-10.58.96-15.2,2.87-4.62,1.92-8.59,4.62-11.91,8.13-3.32,3.5-5.91,7.64-7.78,12.4-1.87,4.76-2.8,10.04-2.8,15.83,0,7.29,1.66,13.75,4.97,19.41,3.32,5.65,7.94,10.11,13.87,13.38,5.93,3.27,12.77,4.9,20.53,4.9,3.46,0,6.96-.47,10.51-1.4,3.55-.93,6.94-2.22,10.16-3.85,2.33-1.18,4.48-2.55,6.45-4.1,1.24-.98,1.54-2.74.62-4.02l-5.21-7.26c-.95-1.32-2.81-1.59-4.11-.6-2.49,1.9-4.85,3.28-7.07,4.14-2.9,1.12-6.07,1.68-9.53,1.68-4.95,0-9.27-.96-12.96-2.87-3.69-1.91-6.54-4.65-8.55-8.2-1.35-2.38-2.2-5.06-2.65-7.99h51.59c1.57,0,2.86-1.26,2.9-2.83l.07-3.19c.09-5.23-.68-10.06-2.31-14.5-1.64-4.44-3.99-8.27-7.07-11.49ZM519.15,148.75h-37.4c.39-1.87.94-3.59,1.67-5.11,1.59-3.31,3.94-5.86,7.07-7.64,3.13-1.77,6.98-2.66,11.56-2.66,2.99,0,5.72.63,8.2,1.89,2.47,1.26,4.51,2.99,6.09,5.18,1.59,2.2,2.52,4.74,2.8,7.64v.7Z"/>
    <path class="cls-4" d="M697.86,128.5c-3.08-3.22-6.73-5.77-10.93-7.64-4.2-1.87-8.74-2.8-13.59-2.8-5.51,0-10.58.96-15.2,2.87-4.62,1.92-8.59,4.62-11.91,8.13-3.32,3.5-5.91,7.64-7.78,12.4-1.87,4.76-2.8,10.04-2.8,15.83,0,7.29,1.66,13.75,4.98,19.41,3.31,5.65,7.94,10.11,13.87,13.38,5.93,3.27,12.77,4.9,20.53,4.9,3.46,0,6.96-.47,10.51-1.4,3.55-.93,6.94-2.22,10.16-3.85,2.33-1.18,4.48-2.55,6.45-4.1,1.24-.98,1.54-2.74.62-4.02l-5.21-7.26c-.95-1.32-2.81-1.59-4.11-.6-2.49,1.9-4.85,3.28-7.07,4.14-2.9,1.12-6.07,1.68-9.53,1.68-4.95,0-9.27-.96-12.96-2.87-3.69-1.91-6.54-4.65-8.55-8.2-1.35-2.38-2.2-5.06-2.65-7.99h51.59c1.57,0,2.86-1.26,2.9-2.83l.07-3.19c.09-5.23-.68-10.06-2.31-14.5-1.64-4.44-3.99-8.27-7.07-11.49ZM690.43,148.75h-37.4c.39-1.87.94-3.59,1.67-5.11,1.59-3.31,3.94-5.86,7.07-7.64,3.13-1.77,6.98-2.66,11.56-2.66,2.99,0,5.72.63,8.2,1.89,2.47,1.26,4.51,2.99,6.09,5.18,1.59,2.2,2.52,4.74,2.8,7.64v.7Z"/>
    <path class="cls-4" d="M615.28,131.65c-1.91-4.48-4.76-7.85-8.55-10.09-3.78-2.24-8.48-3.36-14.08-3.36-3.93,0-7.76.84-11.49,2.52-3.74,1.68-6.96,3.9-9.67,6.66-.88.9-1.64,1.84-2.33,2.8l-.14-7.59c-.03-1.58-1.32-2.84-2.9-2.84h-11.07c-1.6,0-2.9,1.3-2.9,2.9v68.04c0,1.6,1.3,2.9,2.9,2.9h11.44c1.6,0,2.9-1.3,2.9-2.9v-41.66c0-2.24.44-4.3,1.33-6.16.89-1.87,2.1-3.52,3.64-4.97,1.54-1.45,3.36-2.57,5.46-3.36,2.1-.79,4.41-1.19,6.94-1.19,3.08-.09,5.7.44,7.85,1.61,2.15,1.17,3.73,2.99,4.76,5.46,1.03,2.48,1.54,5.58,1.54,9.32v43.86c0,4.74,3.85,8.59,8.59,8.59s8.59-3.85,8.59-8.59c0-.8.05-1.95.05-2.9v-42.22c0-6.73-.96-12.33-2.87-16.81Z"/>
  </g>
</svg>