<svg id="Capa_1" data-name="Capa 1" xmlns="http://www.w3.org/2000/svg" viewBox="0 0 1178.02 859.66">
  <defs>
    <style>
      .cls-1 {
        fill: #fff;
        stroke-width: 0;
      }
    </style>
  </defs>
  <path class="cls-1" d="M0,0v127.93c8.94-7.16,18.67-12.93,29.46-17.5,15.76-6.67,31.83-9.91,49.13-9.91s33.36,3.24,49.13,9.91c12.87,5.44,24.16,12.56,34.51,21.76,41.26,36.67,94.23,56.44,148.47,56.44,13.91,0,27.9-1.3,41.8-3.95,68.13-12.97,126.38-56.83,157.68-118.72,3.25-6.43,7.38-12.11,12.63-17.35,6.37-6.37,13.48-11.17,21.73-14.66,8.53-3.61,17.23-5.36,26.59-5.36s18.06,1.75,26.59,5.36c8.25,3.49,15.36,8.28,21.73,14.66.74.74,1.48,1.51,2.18,2.27,41.71,45.54,100.41,71.8,162.16,72.54,46.2.55,91.05,9.89,133.31,27.77,42.13,17.82,79.97,43.34,112.48,75.84,32.51,32.51,58.02,70.35,75.84,112.48,18.44,43.61,27.79,89.94,27.79,137.72s-9.35,94.12-27.8,137.72c-17.82,42.13-43.34,79.97-75.84,112.48s-70.35,58.02-112.48,75.84c-43.6,18.44-89.94,27.79-137.72,27.79-37.87,0-75.12-5.94-110.72-17.66-34.43-11.33-66.85-27.9-96.35-49.23-26.21-18.95-49.7-41.37-69.83-66.64-42.65-53.55-107.17-84.27-174.82-84.27-7.5,0-15.04.38-22.6,1.14-75.66,7.68-142.23,53.3-176.69,121.1-10.59,20.84-24.47,39.92-41.26,56.7-20.57,20.57-44.5,36.71-71.15,47.98-5.26,2.22-10.58,4.23-15.95,6.04v13.43h1178.02V0H0ZM321.18,841.03c-45.4,0-82.2-36.8-82.2-82.2s36.8-82.2,82.2-82.2,82.2,36.8,82.2,82.2-36.8,82.2-82.2,82.2Z" stroke="none"/>
</svg>