<?xml version="1.0" encoding="UTF-8"?>
<svg id="Capa_1" data-name="Capa 1" xmlns="http://www.w3.org/2000/svg" version="1.1" viewBox="0 0 1178.02 859.66">
  <defs>
    <style>
      .cls-1 {
        fill: #fff;
        stroke-width: 0px;
      }
    </style>
  </defs>
  <path class="cls-1" d="M0,0v859.66s1178.02,0,1178.02,0v-39.9c-18.12-6.07-35.47-14.48-51.65-25.11l-1.19-.79c-37.44-24.95-80.65-37.52-123.98-37.52-37.96,0-76,9.66-110.28,29.11-5.18,2.94-10.49,5.77-15.77,8.42-24.03,12.03-49.46,21.29-75.57,27.53-26.88,6.42-54.66,9.68-82.57,9.68-47.78,0-94.12-9.35-137.72-27.79-42.13-17.82-79.98-43.34-112.48-75.84-32.5-32.5-58.02-70.35-75.84-112.48-10.91-25.79-18.7-52.71-23.16-80.03-16.49-100.96-99.42-177.84-201.34-186.66-12.32-1.07-23.91-3.96-35.45-8.83-14.29-6.04-26.59-14.34-37.62-25.37-11.03-11.03-19.33-23.34-25.37-37.62-6.25-14.78-9.29-29.84-9.29-46.05s3.04-31.28,9.29-46.05c6.04-14.29,14.34-26.59,25.37-37.62,11.03-11.03,23.34-19.33,37.62-25.37,14.78-6.25,29.84-9.29,46.05-9.29s31.28,3.04,46.05,9.29c13.72,5.8,25.59,13.67,36.29,24.06,42.88,41.61,99.05,63.12,155.73,63.12,40.23,0,80.71-10.84,116.85-33.02,14.98-9.19,30.89-17.37,47.29-24.31,43.6-18.44,89.94-27.79,137.72-27.79,20,0,40.1,1.7,59.73,5.04,12.52,2.13,25.06,3.17,37.53,3.17,62.46,0,122.77-26.22,165.52-73.32,1.43-1.57,2.91-3.13,4.41-4.63,11.77-11.77,24.89-20.62,40.14-27.07,15.76-6.67,31.83-9.91,49.13-9.91s33.37,3.24,49.13,9.91c15.24,6.45,28.37,15.3,40.13,27.06,5.78,5.78,10.86,11.9,15.29,18.43V0S0,0,0,0ZM48.5,540.9c0-61.34,49.73-111.07,111.07-111.07,61.34,0,111.07,49.73,111.07,111.07,0,61.34-49.73,111.07-111.07,111.07-61.34,0-111.07-49.73-111.07-111.07Z"/>
</svg>