<?xml version="1.0" encoding="UTF-8"?>
<svg id="Capa_1" data-name="Capa 1" xmlns="http://www.w3.org/2000/svg" version="1.1" viewBox="0 0 1178.02 859.66">
  <defs>
    <style>
      .cls-1 {
        fill: #fff;
        stroke-width: 0;
      }
    </style>
  </defs>
  <path class="cls-1" d="M1178.02,0v352.89c-2.74-9.14-4.91-18.54-6.48-28.16-4.46-27.31-12.25-54.24-23.16-80.02-17.82-42.13-43.34-79.98-75.84-112.48-32.51-32.5-70.35-58.02-112.48-75.84-43.61-18.44-89.94-27.79-137.72-27.79-27.91,0-55.69,3.26-82.57,9.68-26.11,6.24-51.54,15.5-75.57,27.53-5.28,2.64-10.58,5.47-15.77,8.42-34.28,19.45-72.32,29.11-110.28,29.11-43.3,0-86.5-12.56-123.93-37.49l-1.24-.82c-36.5-24-78.95-36.67-122.79-36.67-30.22,0-59.53,5.91-87.11,17.58-26.64,11.27-50.58,27.41-71.14,47.97-20.56,20.56-36.7,44.5-47.97,71.14-11.66,27.58-17.58,56.88-17.58,87.1s5.91,59.53,17.58,87.1c11.27,26.65,27.41,50.58,47.97,71.15,20.56,20.56,44.5,36.7,71.14,47.97.6.25,1.21.51,1.82.76,94.81,39.03,150.91,137.56,136.08,239.01-.89,6.06-1.33,12.32-1.33,18.62,0,17.29,3.24,33.36,9.91,49.13,6.45,15.24,15.3,28.37,27.07,40.14,11.76,11.76,24.89,20.62,40.13,27.06,15.76,6.67,31.84,9.91,49.13,9.91s33.37-3.24,49.13-9.91c15.24-6.45,28.37-15.3,40.13-27.06,1.51-1.51,2.99-3.06,4.41-4.62,42.74-47.11,103.06-73.33,165.52-73.33,12.47,0,25.01,1.04,37.53,3.17,19.64,3.34,39.74,5.04,59.74,5.04,47.78,0,94.12-9.35,137.72-27.8,16.4-6.94,32.31-15.11,47.29-24.31,36.14-22.18,76.62-33.02,116.85-33.02,18.13,0,36.21,2.21,53.83,6.57v201.94H0V0h1178.02Z"/>
</svg>