<?xml version="1.0" encoding="UTF-8"?>
<svg id="Capa_1" data-name="Capa 1" xmlns="http://www.w3.org/2000/svg" viewBox="0 0 1379.57 819.75">
  <defs>
    <style>
      .cls-1 {
        fill: #fff;
        stroke-width: 0px;
      }
    </style>
  </defs>
  <path class="cls-1" d="m1370.28,172.84c-6.04-14.29-14.34-26.59-25.37-37.62-11.03-11.03-23.34-19.33-37.62-25.37-14.78-6.25-29.84-9.29-46.05-9.29s-31.28,3.04-46.05,9.29c-13.72,5.8-25.59,13.67-36.29,24.06-42.88,41.61-99.05,63.12-155.73,63.12-40.23,0-80.71-10.84-116.85-33.02-14.98-9.19-30.89-17.37-47.29-24.31-43.6-18.44-89.94-27.79-137.72-27.79-20,0-40.1,1.7-59.73,5.04-12.52,2.13-25.06,3.17-37.53,3.17-61.05,0-120.04-25.05-162.58-70.16C438.94,19.64,402.85,0,362.18,0c-68.28,0-123.64,55.36-123.64,123.64,0,17.59,1.94,33.8,10.32,49.6,6.75,12.73,15.74,24.09,24.06,35.85,25.11,35.48,33.09,72.58,20.7,114.6-10.59,35.9-35.44,68.3-70.11,83.67-30.07,13.32-63.81,13.17-94.44,24.53-24.46,9.08-47.38,24.04-66.29,41.94C22.94,511.53,0,564.79,0,619.64c0,119.36,106.4,212.36,224.56,198.8,28.19-3.24,55.67-12.39,80.27-26.51s43.1-29.94,71.52-38.19c56.84-16.52,119.58-8.99,171.04,20.21,5.18,2.94,10.49,5.77,15.77,8.42,24.03,12.03,49.46,21.29,75.57,27.53,26.88,6.42,54.66,9.68,82.57,9.68,47.78,0,94.12-9.35,137.72-27.79,42.13-17.82,79.98-43.34,112.48-75.84s58.02-70.35,75.84-112.48c10.91-25.79,18.7-52.71,23.16-80.03,16.49-100.96,99.42-177.84,201.34-186.66,12.32-1.07,23.91-3.96,35.45-8.84,14.29-6.04,26.59-14.34,37.62-25.37,11.03-11.03,19.33-23.34,25.37-37.62,6.25-14.78,9.29-29.84,9.29-46.05s-3.04-31.28-9.29-46.05Z"/>
</svg>