<?xml version="1.0" encoding="UTF-8"?>
<svg id="Capa_1" data-name="Capa 1" xmlns="http://www.w3.org/2000/svg" viewBox="0 0 1335.84 814.64">
  <defs>
    <style>
      .cls-1 {
        fill: #fff;
        stroke-width: 0px;
      }
    </style>
  </defs>
  <path class="cls-1" d="m1335.84,223.79c0,30.22-5.92,59.53-17.58,87.1-11.27,26.65-27.41,50.58-47.97,71.15-20.56,20.56-44.5,36.7-71.14,47.97-.6.25-1.21.51-1.82.76-94.8,39.03-150.9,137.56-136.08,239.01.88,6.06,1.33,12.32,1.33,18.62,0,17.3-3.24,33.36-9.91,49.13-6.45,15.24-15.3,28.37-27.07,40.14s-24.89,20.61-40.13,27.06c-15.76,6.67-31.84,9.91-49.13,9.91s-33.36-3.24-49.13-9.91c-15.24-6.44-28.36-15.29-40.13-27.06-1.51-1.5-2.99-3.06-4.41-4.62-42.74-47.11-103.06-73.33-165.52-73.33-12.47,0-25.01,1.04-37.53,3.17-19.64,3.34-39.74,5.04-59.74,5.04-35.96,0-71.9-5.52-106.22-16.26-33.25-10.41-62.8-28.44-93.62-44.23-27.11-13.88-57.24-22.16-87.72-23.13-30.09-.96-59.75,7.35-89.6,9.96-31.53,2.76-63.6.75-93.04-11.74-37.65-15.97-69.3-45.04-88.67-81.04C7.36,516.12,0,487.53,0,458.7c0-54.02,26.08-105.81,68.31-139.23,21.21-16.78,46.18-28.77,72.64-34.45,25.01-5.37,53.7,4.33,76.15-9.89,11.59-7.34,20.35-18.45,27.22-30.32,13.42-23.17,20.33-49.33,32.6-73.05,12.83-24.8,33.12-48.23,52.76-67.88,32.51-32.5,70.35-58.02,112.48-75.84C485.76,9.6,532.1.25,579.88.25c27.91,0,55.7,3.25,82.58,9.67,26.11,6.24,51.54,15.5,75.57,27.53,5.27,2.64,10.58,5.48,15.77,8.42,34.28,19.45,72.32,29.11,110.28,29.11,43.31,0,86.51-12.56,123.93-37.49l1.24-.82c36.49-24,78.94-36.67,122.79-36.67,30.23,0,59.53,5.92,87.11,17.58,26.64,11.27,50.58,27.41,71.14,47.97s36.7,44.5,47.97,71.14c11.67,27.57,17.58,56.88,17.58,87.1Z"/>
</svg>