<?xml version="1.0" encoding="UTF-8"?>
<svg id="Capa_1" data-name="Capa 1" xmlns="http://www.w3.org/2000/svg" version="1.1" viewBox="0 0 450 450">
  <defs>
    <style>
      .cls-1 {
        fill: #1d1d1b;
        stroke-width: 0px;
      }
    </style>
  </defs>
  <path class="cls-1" d="M26.75,438.03c3.53.68,7.16,1.14,10.78,1.37,13.76.88,26.87,4.58,38.68,10.6h355.03c-.6-15.41-3.38-30.46-8.3-44.81-3.61-10.54-5.36-21.4-5.36-32.15,0-27.47,11.43-54.27,32.42-73.39v-81.18c-9.08-7.47-20.7-11.97-33.35-11.97-21.13,0-40.15,12.64-48.46,32.21-15.57,36.7-51.57,60.49-91.38,60.49-.33,0-2.07-.01-2.6-.01-21.24,0-41.82,4.14-61.17,12.31-12.46,5.26-25.57,7.81-38.57,7.81-25.67,0-50.93-9.96-69.89-28.76-.29-.28-.57-.56-.87-.85-16.32-15.73-37.79-24.4-60.47-24.4-15.72,0-30.49,4.19-43.24,11.5v159.77c2.66-.22,5.34-.33,8.03-.33,6.22,0,12.48.58,18.72,1.78Z"/>
  <path class="cls-1" d="M33.98,147.25c0-18.77-15.21-33.98-33.98-33.98v67.96c18.77,0,33.98-15.21,33.98-33.98Z"/>
</svg>