<?xml version="1.0" encoding="UTF-8"?>
<svg id="Capa_1" data-name="Capa 1" xmlns="http://www.w3.org/2000/svg" viewBox="0 0 221.77 91.45">
  <defs>
    <style>
      .cls-1 {
        fill: #fff;
        stroke-width: 0px;
      }
    </style>
  </defs>
  <g>
    <circle class="cls-1" cx="82.63" cy="13.61" r="13.21"/>
    <path class="cls-1" d="M94.91,32.68c-2.93,0-5.05,1.23-6.31,2.27-3.14,2.58-7.01,3.88-10.89,3.88-3.03,0-6.08-.8-8.8-2.42-4.42-2.64-9.5-4.07-14.68-4.13-8.71-.09-15.97-6.7-16.9-15.36C36.3,7.41,28.31.24,18.72.24,8.4.24,0,8.63,0,18.95c0,8.1,5.41,15.44,13.15,17.87,8.3,2.6,13.36,10.99,11.77,19.53-.32,1.77-.49,3.58-.49,5.4,0,16.24,13.21,29.46,29.47,29.46,7,0,13.79-2.51,19.12-7.08,5.29-4.52,8.81-10.75,9.94-17.53,1.18-7.13,6.7-12.76,13.8-14.09,4.73-.88,8.15-5.01,8.15-9.83,0-5.51-4.49-10-10-10ZM53.89,74.96c-7.3,0-13.21-5.92-13.21-13.21s5.92-13.21,13.21-13.21,13.21,5.92,13.21,13.21-5.92,13.21-13.21,13.21Z"/>
  </g>
  <path class="cls-1" d="M165.59,83.16c.21.4.44.79.71,1.13-.27-.34-.51-.72-.71-1.13-.19-.38-.35-.77-.47-1.19.12.42.28.82.48,1.19Z"/>
  <path class="cls-1" d="M165.58,75.66c.21-.4.44-.78.71-1.12-.26.34-.5.71-.71,1.12-.26.51-.46,1.04-.6,1.62.13-.57.33-1.11.59-1.62Z"/>
  <path class="cls-1" d="M175.16,85.23c-.22.19-.45.36-.69.52-.97.63-2.03.94-3.29.94s-2.36-.31-3.32-.94c-.24-.16-.47-.33-.69-.52.22.18.44.35.69.51.97.63,2.1.94,3.33.94s2.32-.31,3.28-.94c.24-.16.47-.33.69-.51Z"/>
  <g>
    <path class="cls-1" d="M151.23,84.45c-.99,0-1.79.33-2.39.98-.6.66-.9,1.5-.9,2.51,0,1.11.28,1.97.85,2.58.57.61,1.38.92,2.43.92.99,0,1.79-.33,2.38-.98s.9-1.49.9-2.51c0-1.14-.28-2.01-.85-2.6-.57-.6-1.38-.9-2.43-.9h0Z"/>
    <rect class="cls-1" x="187.74" y="67.91" width="5.38" height="23.06" rx=".87" ry=".87"/>
    <path class="cls-1" d="M220.2,73.25c-1.04-1.81-2.46-3.23-4.27-4.27-1.81-1.03-3.86-1.55-6.12-1.55s-4.36.53-6.17,1.55c-1.82,1.04-3.24,2.46-4.29,4.27-1.05,1.82-1.58,3.87-1.58,6.17s.53,4.36,1.58,6.17c1.04,1.82,2.47,3.24,4.29,4.27,1.81,1.03,3.86,1.55,6.17,1.55s4.32-.52,6.12-1.55c1.81-1.03,3.23-2.45,4.27-4.27,1.03-1.81,1.55-3.87,1.55-6.17s-.52-4.35-1.55-6.17ZM215.47,83.1c-.56,1.08-1.34,1.94-2.31,2.58-.98.65-2.1.96-3.35.96s-2.38-.32-3.4-.96c-1.01-.64-1.79-1.5-2.34-2.58-.55-1.08-.83-2.3-.83-3.68s.28-2.61.83-3.7c.55-1.1,1.34-1.96,2.34-2.59,1.01-.63,2.13-.94,3.4-.94s2.37.31,3.35.94c.98.63,1.75,1.49,2.31,2.56.57,1.08.85,2.32.82,3.72.03,1.37-.24,2.6-.82,3.68Z"/>
    <path class="cls-1" d="M181.4,73.2c-.91-1.81-2.17-3.23-3.76-4.24s-3.42-1.53-5.49-1.53c-.93,0-1.85.16-2.76.46-.9.31-1.74.71-2.49,1.22-.76.52-1.39,1.08-1.9,1.71l-.03.03v-8.41c-2.16,1.06-4.12,1.48-5.38,1.65v25.93c0,.47.39.87.87.87h3.5c.47,0,.86-.38.87-.85l.05-1.93c.5.58,1.1,1.12,1.82,1.59.79.53,1.67.94,2.64,1.25.98.3,1.98.46,3,.46,1.98,0,3.77-.52,5.36-1.55,1.59-1.03,2.84-2.46,3.74-4.27.9-1.81,1.35-3.88,1.35-6.22s-.46-4.35-1.38-6.17ZM176.88,82.88c-.05.09-.08.19-.13.28-.07.14-.14.27-.22.4-.38.65-.84,1.2-1.37,1.67-.22.18-.45.35-.69.51-.96.63-2.06.94-3.28.94s-2.36-.31-3.33-.94c-.24-.16-.47-.33-.69-.51-.32-.28-.61-.59-.87-.94-.26-.34-.5-.72-.71-1.13-.2-.38-.36-.77-.48-1.19-.24-.79-.36-1.66-.36-2.6,0-.21,0-.4.02-.6.03-.45.08-.88.17-1.29.02-.08.03-.14.05-.21.14-.57.34-1.11.6-1.62.21-.4.44-.78.71-1.12.44-.56.96-1.03,1.56-1.42.36-.23.74-.41,1.14-.55.09-.04.19-.07.29-.09.08-.03.15-.05.23-.06.53-.15,1.08-.22,1.67-.22s1.21.08,1.77.24c.28.08.55.17.81.28.26.11.51.25.75.4.71.46,1.33,1.05,1.81,1.77.16.24.31.5.44.77.54,1.08.81,2.31.81,3.72,0,1.29-.24,2.47-.7,3.51Z"/>
  </g>
  <g>
    <path class="cls-1" d="M138.94,15.66c-.51-1.38-1.25-2.59-2.21-3.59-.97-1.01-2.11-1.8-3.42-2.39-1.31-.58-2.73-.87-4.25-.87-1.72,0-3.3.3-4.75.89-1.45.6-2.69,1.45-3.73,2.55-1.03,1.09-1.84,2.39-2.43,3.87-.58,1.5-.88,3.14-.88,4.96,0,2.28.53,4.3,1.56,6.07,1.03,1.77,2.48,3.17,4.34,4.19h0c1.86,1.03,4,1.54,6.42,1.54,1.08,0,2.18-.15,3.29-.43,1.11-.29,2.16-.7,3.18-1.21.72-.37,1.4-.79,2.01-1.28.39-.3.48-.86.19-1.26l-1.63-2.27c-.29-.41-.87-.5-1.28-.19-.78.59-1.52,1.03-2.21,1.29-.91.36-1.9.53-2.98.53-1.55,0-2.91-.3-4.05-.89-1.16-.6-2.05-1.46-2.68-2.57-.41-.74-.69-1.59-.83-2.5h16.14c.5,0,.89-.4.91-.88l.02-1.01c.03-1.64-.22-3.14-.72-4.53ZM134.41,18.41h-11.7c.12-.58.29-1.12.52-1.6.5-1.03,1.24-1.83,2.22-2.39.98-.55,2.18-.84,3.61-.84.94,0,1.8.2,2.57.59.77.4,1.41.93,1.91,1.62.49.7.79,1.49.87,2.4v.22Z"/>
    <path class="cls-1" d="M147.17,32.43h1.42c.69,0,1.25-.56,1.25-1.25v-12.69c0-.7.14-1.34.42-1.93.28-.58.66-1.1,1.14-1.56s1.05-.8,1.71-1.05c.66-.25,1.38-.37,2.17-.37.97-.03,1.78.14,2.46.5.67.37,1.17.93,1.49,1.71.32.77.48,1.75.48,2.91v12.47c0,.69.56,1.25,1.25,1.25h2.89c.69,0,1.25-.56,1.25-1.25v-12.86c0-2.1-.3-3.86-.9-5.26-.6-1.4-1.49-2.46-2.67-3.16-1.18-.7-2.65-1.05-4.4-1.05-1.23,0-2.42.26-3.59.79-1.17.52-2.18,1.22-3.02,2.08-.27.28-.51.57-.73.87l-.04-2.04c-.01-.68-.57-1.23-1.25-1.23h-2.78c-.69,0-1.25.56-1.25,1.25v20.6c0,.69.56,1.25,1.25,1.25h1.47Z"/>
    <path class="cls-1" d="M191.92,0h-3.02c-.66,0-1.19.53-1.19,1.19v10.81c-.38-.42-.81-.82-1.32-1.19-.82-.6-1.75-1.08-2.78-1.43-1.03-.35-2.11-.53-3.23-.53-2.04,0-3.87.53-5.5,1.56-1.62,1.03-2.9,2.46-3.83,4.27-.94,1.82-1.41,3.87-1.41,6.18s.48,4.41,1.43,6.21c.95,1.8,2.24,3.21,3.86,4.25,1.63,1.03,3.46,1.55,5.5,1.55,1.05,0,2.09-.17,3.09-.5,1.01-.34,1.89-.79,2.65-1.34.65-.47,1.19-.99,1.64-1.55l.05,2.08c.02.49.41.88.91.88h3.14c.66,0,1.19-.54,1.19-1.19V1.19c0-.66-.53-1.19-1.19-1.19ZM187.07,24.72c-.54,1.12-1.29,1.99-2.26,2.63-.96.65-2.07.97-3.33.97s-2.37-.32-3.33-.97c-.96-.64-1.72-1.51-2.26-2.63-.54-1.11-.81-2.39-.81-3.86s.26-2.71.81-3.84c.54-1.12,1.3-2,2.26-2.62.97-.63,2.08-.95,3.33-.95s2.37.32,3.33.95c.97.62,1.72,1.5,2.26,2.62.55,1.13.82,2.41.82,3.84s-.27,2.75-.82,3.86Z"/>
    <path class="cls-1" d="M220.21,14.68c-1.03-1.81-2.45-3.24-4.27-4.27-1.82-1.03-3.86-1.56-6.13-1.56s-4.37.53-6.18,1.56c-1.82,1.03-3.24,2.46-4.3,4.27-1.05,1.82-1.58,3.87-1.58,6.18s.53,4.37,1.58,6.18c1.05,1.82,2.48,3.24,4.3,4.28,1.81,1.03,3.87,1.55,6.18,1.55s4.32-.52,6.13-1.55c1.82-1.04,3.24-2.46,4.27-4.28,1.04-1.81,1.56-3.87,1.56-6.18s-.52-4.36-1.56-6.18ZM215.48,24.55c-.57,1.08-1.34,1.94-2.32,2.59-.98.64-2.1.96-3.35.96s-2.39-.32-3.4-.96c-1.02-.65-1.8-1.5-2.35-2.59-.55-1.08-.83-2.31-.83-3.69s.27-2.61.83-3.71c.55-1.09,1.34-1.96,2.35-2.59,1.01-.63,2.13-.94,3.4-.94s2.37.31,3.35.94c.98.63,1.75,1.49,2.32,2.57.57,1.08.85,2.32.81,3.72.03,1.37-.24,2.61-.81,3.69Z"/>
    <path class="cls-1" d="M139.43,37.4h-3.49c-.49,0-.89.4-.9.89l-.04,2c-.27-.32-.56-.63-.91-.93-.55-.46-1.18-.88-1.86-1.27-.69-.38-1.44-.67-2.26-.87-.82-.2-1.66-.3-2.54-.3-2.1,0-3.99.52-5.67,1.55-1.67,1.03-3,2.45-3.96,4.24-.96,1.8-1.44,3.85-1.44,6.15s.49,4.35,1.47,6.11c.97,1.76,2.3,3.16,3.98,4.18,1.67,1.03,3.61,1.53,5.79,1.53,1.26,0,2.48-.25,3.68-.76,1.2-.52,2.19-1.18,2.98-1.99.25-.27.46-.54.66-.81v2.16c0,1.46-.26,2.67-.79,3.65-.53.98-1.31,1.71-2.34,2.19s-2.33.72-3.87.72c-.85,0-1.7-.08-2.56-.26-.87-.18-1.67-.42-2.44-.74-.44-.19-.86-.4-1.25-.62-.44-.25-1.02-.07-1.24.4l-1.16,2.39c-.21.41-.06.91.33,1.17.94.63,2.1,1.16,3.48,1.57,1.7.53,3.41.79,5.14.79,1.9,0,3.59-.25,5.08-.76,1.49-.52,2.76-1.27,3.81-2.28,1.05-1.01,1.85-2.23,2.41-3.66.55-1.43.83-3.08.83-4.95v-20.59c0-.5-.4-.9-.9-.9ZM134.26,52.64c-.55,1.08-1.34,1.92-2.34,2.54-1.01.61-2.16.91-3.48.91s-2.46-.3-3.46-.91c-.99-.61-1.77-1.47-2.34-2.57-.56-1.09-.85-2.32-.85-3.7s.28-2.65.85-3.74c.57-1.09,1.35-1.96,2.34-2.59,1-.62,2.14-.94,3.46-.94s2.46.31,3.46.92c.99.61,1.77,1.47,2.34,2.56.56,1.1.85,2.36.85,3.79s-.27,2.64-.83,3.72Z"/>
    <path class="cls-1" d="M166.72,43.73c-.51-1.39-1.24-2.59-2.21-3.59-.96-1.01-2.1-1.81-3.41-2.39-1.31-.58-2.73-.87-4.24-.87-1.72,0-3.31.3-4.75.9-1.44.59-2.68,1.44-3.72,2.54-1.03,1.09-1.84,2.38-2.43,3.87-.58,1.5-.87,3.14-.87,4.95,0,2.28.52,4.3,1.55,6.07,1.03,1.77,2.48,3.16,4.34,4.18,1.85,1.03,3.99,1.53,6.41,1.53,1.08,0,2.17-.14,3.28-.43,1.11-.29,2.16-.7,3.17-1.2.73-.37,1.4-.8,2.01-1.28.4-.31.49-.86.2-1.26l-1.63-2.27c-.3-.41-.87-.5-1.29-.19-.77.59-1.51,1.03-2.2,1.29-.91.36-1.9.53-2.98.53-1.54,0-2.9-.3-4.04-.89-1.16-.59-2.05-1.45-2.67-2.56-.42-.74-.69-1.58-.83-2.5h16.11c.49,0,.89-.4.91-.88l.02-1c.03-1.63-.22-3.14-.72-4.52ZM162.19,46.47h-11.68c.12-.59.29-1.13.53-1.6.5-1.03,1.23-1.83,2.21-2.39.98-.55,2.17-.83,3.61-.83.93,0,1.79.2,2.56.58.77.4,1.41.94,1.9,1.63.5.69.79,1.48.87,2.38v.23Z"/>
    <path class="cls-1" d="M220.23,43.73c-.52-1.39-1.25-2.59-2.21-3.59-.97-1.01-2.11-1.81-3.42-2.39-1.31-.58-2.73-.87-4.24-.87-1.72,0-3.3.3-4.75.9-1.44.59-2.68,1.44-3.72,2.54-1.04,1.09-1.85,2.38-2.44,3.87-.58,1.5-.87,3.14-.87,4.95,0,2.28.52,4.3,1.56,6.07,1.03,1.77,2.47,3.16,4.33,4.18,1.85,1.03,3.99,1.53,6.41,1.53,1.08,0,2.17-.14,3.28-.43,1.11-.29,2.17-.7,3.18-1.2.72-.37,1.4-.8,2.01-1.28.39-.31.48-.86.2-1.26l-1.63-2.27c-.3-.41-.88-.5-1.29-.19-.78.59-1.51,1.03-2.21,1.29-.9.36-1.89.53-2.97.53-1.55,0-2.9-.3-4.05-.89-1.15-.59-2.04-1.45-2.67-2.56-.42-.74-.69-1.58-.83-2.5h16.12c.49,0,.89-.4.9-.88l.02-1c.03-1.63-.21-3.14-.71-4.52ZM215.69,46.47h-11.68c.12-.59.3-1.13.53-1.6.5-1.03,1.23-1.83,2.21-2.39.98-.55,2.18-.83,3.61-.83.93,0,1.79.2,2.56.58.77.4,1.41.94,1.9,1.63.5.69.79,1.48.87,2.38v.23Z"/>
    <path class="cls-1" d="M192.22,41.13c-.6-1.4-1.49-2.45-2.67-3.15-1.18-.7-2.65-1.05-4.4-1.05-1.23,0-2.42.26-3.59.79-1.17.52-2.17,1.22-3.02,2.08-.27.28-.51.57-.73.87l-.04-2.37c0-.49-.41-.89-.91-.89h-3.46c-.5,0-.91.41-.91.91v21.26c0,.5.41.91.91.91h3.57c.5,0,.91-.41.91-.91v-13.01c0-.7.14-1.34.42-1.92.28-.58.66-1.1,1.14-1.55.48-.45,1.05-.8,1.71-1.05.66-.25,1.38-.37,2.17-.37.96-.03,1.78.14,2.45.5.67.37,1.17.93,1.49,1.71.32.77.48,1.74.48,2.91v13.7c0,1.48,1.2,2.68,2.68,2.68s2.68-1.2,2.68-2.68c0-.25.02-.61.02-.91v-13.19c0-2.1-.3-3.85-.9-5.25h0Z"/>
  </g>
</svg>