<?xml version="1.0" encoding="UTF-8"?>
<svg id="Capa_1" data-name="Capa 1" xmlns="http://www.w3.org/2000/svg" version="1.1" viewBox="0 0 47.14 58.93">
  <defs>
    <style>
      .cls-1 {
        fill: #fff;
        stroke-width: 0px;
      }
    </style>
  </defs>
  <path class="cls-1" d="M34.04,41.74l-2.54-1.7c-2.06-1.37-3.09-2.06-3.64-2.73-.49-.6-.86-1.28-1.09-2.03-.25-.84-.25-2.08-.25-4.55v-7.16c0-1.63-1.32-2.95-2.95-2.95s-2.95,1.32-2.95,2.95v7.16c0,2.96,0,4.59.51,6.26.45,1.49,1.18,2.86,2.17,4.06,1.11,1.35,2.47,2.25,4.93,3.9l2.54,1.69c.5.33,1.07.5,1.63.5.95,0,1.89-.46,2.45-1.31.9-1.35.54-3.18-.82-4.09Z"/>
  <path class="cls-1" d="M46.28,16.81c1.15-1.15,1.15-3.02,0-4.17-1.15-1.15-3.02-1.15-4.17,0l-1.59,1.59c-2.33-1.54-5.12-2.45-8.12-2.45h-5.89v-5.89h2.95c1.63,0,2.95-1.32,2.95-2.95s-1.32-2.95-2.95-2.95h-11.79c-1.63,0-2.95,1.32-2.95,2.95s1.32,2.95,2.95,2.95h2.95v5.89h-5.89c-3,0-5.79.91-8.12,2.45l-1.59-1.59c-1.15-1.15-3.02-1.15-4.17,0s-1.15,3.02,0,4.17l1.59,1.59c-1.54,2.33-2.45,5.12-2.45,8.12v17.68c0,8.12,6.61,14.73,14.73,14.73h17.68c8.12,0,14.73-6.61,14.73-14.73v-17.68c0-3-.91-5.79-2.45-8.12l1.59-1.59ZM41.25,44.19c0,4.87-3.96,8.84-8.84,8.84H14.73c-4.87,0-8.84-3.96-8.84-8.84v-17.68c0-4.87,3.97-8.84,8.84-8.84h17.68c4.87,0,8.84,3.96,8.84,8.84v17.68Z"/>
</svg>