<?xml version="1.0" encoding="UTF-8"?>
<svg id="Capa_1" data-name="Capa 1" xmlns="http://www.w3.org/2000/svg" version="1.1" viewBox="0 0 44.45 44.45">
  <defs>
    <style>
      .cls-1 {
        fill: #fff;
        stroke-width: 0px;
      }
    </style>
  </defs>
  <path class="cls-1" d="M23.02,15.53h-1.59c-3.84,0-6.97-3.13-6.97-6.97v-1.59c0-3.84,3.13-6.97,6.97-6.97h1.59c3.84,0,6.97,3.13,6.97,6.97v1.59c0,3.84-3.13,6.97-6.97,6.97ZM21.43,5.89c-.59,0-1.08.48-1.08,1.08v1.59c0,.59.48,1.08,1.08,1.08h1.59c.59,0,1.08-.48,1.08-1.08v-1.59c0-.59-.48-1.08-1.08-1.08h-1.59Z"/>
  <path class="cls-1" d="M23.02,44.45h-1.59c-3.84,0-6.97-3.13-6.97-6.97v-1.59c0-3.84,3.13-6.97,6.97-6.97h1.59c3.84,0,6.97,3.13,6.97,6.97v1.59c0,3.84-3.13,6.97-6.97,6.97ZM21.43,34.81c-.59,0-1.08.48-1.08,1.08v1.59c0,.59.48,1.08,1.08,1.08h1.59c.59,0,1.08-.48,1.08-1.08v-1.59c0-.59-.48-1.08-1.08-1.08h-1.59Z"/>
  <path class="cls-1" d="M8.56,29.99h-1.59c-3.84,0-6.97-3.13-6.97-6.97v-1.59c0-3.84,3.13-6.97,6.97-6.97h1.59c3.84,0,6.97,3.13,6.97,6.97v1.59c0,3.84-3.13,6.97-6.97,6.97ZM6.97,20.35c-.59,0-1.08.48-1.08,1.08v1.59c0,.59.48,1.08,1.08,1.08h1.59c.59,0,1.08-.48,1.08-1.08v-1.59c0-.59-.48-1.08-1.08-1.08h-1.59Z"/>
  <path class="cls-1" d="M37.48,29.99h-1.59c-3.84,0-6.97-3.13-6.97-6.97v-1.59c0-3.84,3.13-6.97,6.97-6.97h1.59c3.84,0,6.97,3.13,6.97,6.97v1.59c0,3.84-3.13,6.97-6.97,6.97ZM35.89,20.35c-.59,0-1.08.48-1.08,1.08v1.59c0,.59.48,1.08,1.08,1.08h1.59c.59,0,1.08-.48,1.08-1.08v-1.59c0-.59-.48-1.08-1.08-1.08h-1.59Z"/>
</svg>