<?xml version="1.0" encoding="UTF-8"?>
<svg id="Capa_1" data-name="Capa 1" xmlns="http://www.w3.org/2000/svg" version="1.1" viewBox="0 0 51.81 48.18">
  <defs>
    <style>
      .cls-1 {
        fill: #fff;
        stroke-width: 0px;
      }
    </style>
  </defs>
  <path class="cls-1" d="M49.49,2.11c-3.07-2.83-8.85-3.4-14.3,2.05-2.22,2.22-3.87,5.49-5.11,9.24-1.29.07-2.68.1-4.19.1s-2.9-.04-4.19-.1c-1.34-4.09-3.04-7.18-5.11-9.24C11.16-1.29,5.38-.73,2.31,2.11c-2.98,2.75-3.09,7.16-.26,10.48,2.87,3.37,7.84,5.46,15.1,6.33,2.1,9.12,2.34,20.84,2.15,26.21-.06,1.63,1.21,2.99,2.84,3.05.04,0,.07,0,.11,0,1.58,0,2.89-1.25,2.94-2.84.01-.32.27-7.84-.57-16.59-.33-3.45-.78-6.58-1.36-9.4.86.02,1.74.04,2.64.04s1.77-.01,2.63-.04c-2.32,11.24-1.99,23.9-1.92,25.98.06,1.59,1.36,2.84,2.94,2.84.04,0,.07,0,.11,0,1.63-.06,2.9-1.42,2.84-3.05-.19-5.37.05-17.09,2.15-26.21,7.26-.87,12.23-2.97,15.1-6.33,2.83-3.32,2.72-7.73-.26-10.48ZM6.54,8.77c-.77-.9-.85-1.75-.23-2.33.33-.31.87-.52,1.57-.52,1.16,0,2.76.61,4.56,2.41,1.06,1.07,1.97,2.56,2.75,4.35-5.01-.93-7.46-2.5-8.65-3.9ZM45.27,8.77c-1.19,1.4-3.64,2.97-8.65,3.9.77-1.79,1.68-3.28,2.74-4.35,1.8-1.8,3.4-2.41,4.57-2.41.7,0,1.24.22,1.57.52.62.58.54,1.43-.23,2.33Z"/>
</svg>