<?xml version="1.0" encoding="UTF-8"?>
<svg id="Capa_1" data-name="Capa 1" xmlns="http://www.w3.org/2000/svg" version="1.1" viewBox="0 0 40.5 50.35">
  <defs>
    <style>
      .cls-1 {
        fill: #fff;
        stroke-width: 0px;
      }
    </style>
  </defs>
  <path class="cls-1" d="M38.67,44.68c-5.42-2.22-9.92-4.64-13.62-7.13,7.69-6.93,10.79-14.15,10.79-19.85C35.83,8.89,31.16,0,20.73,0c-.17,0-.33.02-.49.05-.16-.03-.32-.05-.49-.05C9.34,0,4.67,8.89,4.67,17.7c0,5.71,3.1,12.92,10.79,19.85-3.7,2.49-8.2,4.9-13.62,7.13-1.51.62-2.23,2.34-1.61,3.84.47,1.14,1.57,1.83,2.73,1.83.37,0,.75-.07,1.12-.22,6.51-2.67,11.86-5.64,16.18-8.73,4.33,3.1,9.67,6.06,16.18,8.73.37.15.74.22,1.12.22,1.16,0,2.26-.69,2.73-1.83.62-1.5-.1-3.23-1.61-3.84ZM10.56,17.7c0-10.95,7.04-11.8,9.2-11.8.17,0,.33-.02.49-.05.16.03.32.05.49.05,8.54,0,9.2,9.04,9.2,11.8,0,4.37-2.77,10.32-9.69,16.23-6.91-5.91-9.69-11.86-9.69-16.23Z"/>
</svg>