<?xml version="1.0" encoding="UTF-8"?>
<svg id="Capa_1" data-name="Capa 1" xmlns="http://www.w3.org/2000/svg" version="1.1" viewBox="0 0 41.81 65.59">
  <defs>
    <style>
      .cls-1 {
        fill: #fff;
        stroke-width: 0px;
      }
    </style>
  </defs>
  <path class="cls-1" d="M4.82,11.86c-1.53.55-2.32,2.24-1.77,3.77,2.2,6.06,4.69,16.08,3.36,19.41-.38.96-.96,2.14-1.57,3.39-3.09,6.33-7.76,15.9-2.38,25.63.54.97,1.54,1.52,2.58,1.52.48,0,.97-.12,1.42-.37,1.42-.79,1.94-2.58,1.15-4-3.9-7.05-.35-14.34,2.51-20.2.66-1.35,1.29-2.63,1.75-3.79,2.63-6.58-2.28-20.82-3.29-23.6-.55-1.53-2.24-2.32-3.77-1.77Z"/>
  <path class="cls-1" d="M32.66,23.72c-1.05-.89-2-1.79-2.85-2.65.3-.11.61-.25.92-.4,2.36-1.21,3.92-3.24,4.4-5.72.51-2.63-.29-5.49-2.15-7.64-1.56-1.81-3.27-2.88-4.92-3.92-1.25-.78-2.43-1.52-3.62-2.62-1.2-1.1-3.06-1.02-4.16.17-1.1,1.2-1.02,3.06.17,4.16,1.59,1.46,3.13,2.42,4.48,3.27,1.46.91,2.61,1.63,3.59,2.77.68.78.99,1.81.83,2.66-.13.69-.57,1.23-1.31,1.61-1.7.88-3.51-.64-3.63-.75-.05-.04-.1-.07-.15-.11-.08-.07-.17-.13-.26-.19-.08-.05-.17-.09-.25-.13-.08-.04-.16-.08-.25-.12-.1-.04-.19-.06-.29-.09-.08-.02-.17-.05-.25-.06-.1-.02-.2-.03-.3-.03-.09,0-.17-.01-.26-.01-.1,0-.2.01-.3.03-.09.01-.18.02-.27.04-.1.02-.2.05-.29.09-.08.03-.17.05-.25.09-.1.04-.2.1-.3.15-.06.03-.11.05-.17.09-.02.01-.03.03-.05.04-.08.06-.16.13-.24.19-.08.06-.15.13-.22.2-.01.02-.03.03-.05.04-.05.05-.08.11-.12.16-.07.08-.13.17-.19.26-.05.08-.09.16-.13.25-.04.09-.09.17-.12.26-.04.09-.06.19-.09.28-.02.09-.05.18-.07.27-.02.09-.02.19-.03.28,0,.09-.02.19-.01.28,0,.09.01.18.02.28.01.1.02.19.04.29.02.1.05.19.08.28.03.09.05.17.09.26.04.1.1.19.15.29.03.06.05.12.09.17.13.2,3.32,5,8.86,9.71,4.89,4.17,7.08,6.95,7.08,12.42,0,4.85-5.41,9.35-10.06,9.98-1.61.22-2.74,1.7-2.52,3.32.2,1.48,1.46,2.55,2.92,2.55.13,0,.27,0,.4-.03,7.17-.97,15.16-7.71,15.16-15.82,0-7.66-3.22-11.85-9.15-16.91Z"/>
</svg>