<?xml version="1.0" encoding="UTF-8"?>
<svg id="Capa_1" data-name="Capa 1" xmlns="http://www.w3.org/2000/svg" viewBox="0 0 42.36 53.8">
  <defs>
    <style>
      .cls-1 {
        fill: #fff;
        stroke-width: 0px;
      }
    </style>
  </defs>
  <path class="cls-1" d="M28.99,23.44h-4.87v-4.87c0-1.63-1.32-2.95-2.95-2.95s-2.95,1.32-2.95,2.95v4.87h-4.87c-1.63,0-2.95,1.32-2.95,2.95s1.32,2.95,2.95,2.95h4.87v4.87c0,1.63,1.32,2.95,2.95,2.95s2.95-1.32,2.95-2.95v-4.87h4.87c1.63,0,2.95-1.32,2.95-2.95s-1.32-2.95-2.95-2.95Z"/>
  <path class="cls-1" d="M40.9,7.3c-1.29-2.53-3.31-4.55-5.84-5.84-2.86-1.46-6.02-1.46-12.32-1.46h-3.13c-6.3,0-9.46,0-12.32,1.46-2.53,1.29-4.55,3.31-5.84,5.84-1.46,2.86-1.46,6.02-1.46,12.32v12.73c0,3.71,0,5.75.66,7.78.59,1.8,1.53,3.42,2.8,4.83,1.43,1.58,3.2,2.59,6.42,4.43l1.56.89c3.17,1.81,4.92,2.81,6.98,3.25.91.19,1.83.29,2.75.29s1.84-.1,2.76-.29c2.05-.43,3.8-1.43,6.98-3.25l1.57-.89c3.22-1.84,4.99-2.85,6.42-4.43,1.27-1.4,2.21-3.03,2.8-4.83.66-2.02.66-4.06.66-7.77v-12.73c0-6.3,0-9.46-1.46-12.32ZM36.47,32.34c0,3.21,0,4.82-.37,5.95-.33,1.01-.86,1.92-1.57,2.7-.8.88-2.19,1.68-4.98,3.27l-1.56.89c-2.74,1.57-4.12,2.35-5.27,2.6-1.02.21-2.06.21-3.08,0-1.15-.24-2.53-1.03-5.27-2.6l-1.56-.89c-2.78-1.59-4.18-2.39-4.98-3.27-.71-.78-1.24-1.69-1.57-2.7-.37-1.13-.37-2.74-.37-5.95v-12.73c0-5.19,0-8.05.81-9.64.72-1.42,1.85-2.54,3.27-3.27,1.6-.81,4.46-.81,9.64-.81h3.13c5.19,0,8.05,0,9.64.81,1.42.72,2.54,1.85,3.27,3.27.81,1.6.81,4.46.81,9.64v12.73Z"/>
</svg>