<?xml version="1.0" encoding="UTF-8"?>
<svg id="Capa_1" data-name="Capa 1" xmlns="http://www.w3.org/2000/svg" version="1.1" viewBox="0 0 41.25 51.56">
  <defs>
    <style>
      .cls-1 {
        fill: #fff;
        stroke-width: 0px;
      }
    </style>
  </defs>
  <path class="cls-1" d="M41.25,2.58c0-1.42-1.15-2.58-2.58-2.58s-2.58,1.15-2.58,2.58v5.16H5.16V2.58c0-1.42-1.15-2.58-2.58-2.58S0,1.15,0,2.58v6.7c0,.36,0,.68,0,1.02,0,0,0,0,0,0s0,0,0,0c0,5.48.08,8.41,1.4,11,.91,1.78,2.2,3.29,3.77,4.46-1.57,1.17-2.86,2.68-3.77,4.46-1.4,2.76-1.4,5.86-1.4,12.04v6.7c0,1.42,1.15,2.58,2.58,2.58s2.58-1.15,2.58-2.58v-5.16h30.93v5.16c0,1.42,1.15,2.58,2.58,2.58s2.58-1.15,2.58-2.58v-6.7c0-6.18,0-9.28-1.4-12.04-.91-1.78-2.19-3.29-3.77-4.46,1.57-1.17,2.86-2.68,3.77-4.46,1.32-2.59,1.4-5.52,1.4-11,0,0,0,0,0,0s0,0,0,0c0-.34,0-.66,0-1.02V2.58ZM31.87,22.36c-1.65.84-4.34.84-9.7.84h-3.09c-5.36,0-8.04,0-9.7-.84-.86-.44-1.6-1.04-2.23-1.74h26.95c-.63.7-1.37,1.3-2.23,1.74ZM31.87,29.2c.86.44,1.6,1.04,2.23,1.74H7.15c.63-.7,1.37-1.3,2.23-1.74,1.65-.84,4.34-.84,9.7-.84h3.09c5.36,0,8.04,0,9.7.84ZM5.26,36.09h30.73c.05.75.08,1.6.09,2.58H5.17c.01-.98.04-1.83.09-2.58ZM5.26,15.47c-.05-.75-.07-1.6-.09-2.58h30.91c-.01.98-.04,1.83-.09,2.58H5.26Z"/>
</svg>