<?xml version="1.0" encoding="UTF-8"?>
<svg xmlns="http://www.w3.org/2000/svg" xmlns:xlink="http://www.w3.org/1999/xlink" viewBox="0 0 1003 461.89">
  <defs>
    <style>
      .cls-1 {
        fill: #78bfbf;
      }

      .cls-1, .cls-2, .cls-3, .cls-4 {
        stroke-width: 0px;
      }

      .cls-5 {
        clip-path: url(#clippath);
      }

      .cls-2 {
        fill: none;
      }

      .cls-6 {
        mix-blend-mode: multiply;
      }

      .cls-7 {
        clip-path: url(#clippath-1);
      }

      .cls-8 {
        clip-path: url(#clippath-4);
      }

      .cls-9 {
        clip-path: url(#clippath-3);
      }

      .cls-10 {
        clip-path: url(#clippath-2);
      }

      .cls-3 {
        fill: #e15573;
      }

      .cls-4 {
        fill: #7759a2;
      }

      .cls-11 {
        isolation: isolate;
      }
    </style>
    <clipPath id="clippath">
      <rect class="cls-2" width="1003" height="461.89"/>
    </clipPath>
    <clipPath id="clippath-1">
      <rect class="cls-2" width="1003" height="461.89"/>
    </clipPath>
    <clipPath id="clippath-2">
      <rect class="cls-2" x="653.89" y="-8" width="358.11" height="470.89"/>
    </clipPath>
    <clipPath id="clippath-3">
      <rect class="cls-2" x="295.03" y="23.66" width="469.52" height="407.58"/>
    </clipPath>
    <clipPath id="clippath-4">
      <rect class="cls-2" x="-17" y="20.89" width="487.27" height="406.11"/>
    </clipPath>
  </defs>
  <g class="cls-11">
    <g id="Capa_1" data-name="Capa 1">
      <g id="_2usAu7.tif" data-name="2usAu7.tif">
        <g class="cls-5">
          <g class="cls-7">
            <g class="cls-6">
              <g class="cls-10">
                <path class="cls-1" d="M784.42,192.7c-.02,10.72-4.37,19.16-14.28,23.85-8.83,4.18-17.42,3.04-25.16-2.94-6.55-5.06-9.42-12-9.43-20.18-.01-15.88,0-31.77,0-47.65,0-16.18-.14-32.37.06-48.56.14-11.32,7.95-20.91,18.57-23.48,10.8-2.62,22.24,2.29,27.1,12.41,1.9,3.95,2.99,8.68,3.02,13.06.25,31.16.17,62.32.11,93.48M710.7,461.87c5.29-17.64,12.3-24.25,25.46-24.12,12.39.12,19.79,7.42,24.42,24.15h47.41c4.65-16.76,11.91-24.41,24.1-23.93,5.02.2,10.39,2,14.8,4.5,7.18,4.07,9.74,11.52,10.57,19.37h47.8c4.32-17.06,12.39-24.48,26.01-24.09,12.31.35,20.76,8.94,23.54,24.04h47.76c2.39-20.21-11.34-47.33-31.64-60.14-30.93-19.52-60.99-16.15-88.89,4.86-7.79-4.3-15.18-8.34-22.51-12.48-.91-.51-2.14-1.55-2.16-2.37-.15-8.88-.1-17.77-.1-27.04,2.47,0,4.42.07,6.36-.01,12.83-.51,25.89.32,38.46-1.81,69.08-11.7,113.26-78.44,97.84-146.85-11.3-50.17-54.21-88.8-105.12-93.28-18.63-1.64-37.48-.74-56.24-.99-1.76-.02-3.52,0-5.69,0,0-2.48.07-4.42-.01-6.36-.46-10.86.36-21.98-1.7-32.54-4.89-25.02-19.93-42.51-43.25-52.88-1.44-.64-3.56-2.1-3.58-3.21-.16-8.9.11-17.81.25-26.71h-49.04c0,8.48-.08,16.95.05,25.42.04,2.3-.69,3.4-2.83,4.35-29.74,13.09-45.15,36.09-45.69,68.41-.53,31.92-.54,63.87,0,95.8.54,32.16,16.05,54.99,45.45,68.16,2.33,1.04,3.13,2.15,3.08,4.65-.16,8.26-.06,16.53-.06,24.77h48.59c0-7.98.2-15.55-.09-23.1-.14-3.75,1.18-5.38,4.61-6.96,27.43-12.68,42.36-34.17,44.01-64.45.47-8.71.07-17.46.07-26.76h5.56c14.08,0,28.15-.11,42.22.06,4.97.06,9.99.47,14.88,1.34,35.93,6.41,62.13,41.05,58.84,77.56-3.38,37.52-34.81,66.79-71.74,66.79-55.24.01-110.48,0-165.73,0h-5.32v48.65h97.22c0,7.19-.42,13.85.13,20.42.47,5.76-1.17,8.77-6.84,11.08-6.43,2.63-12.14,7.05-18.18,10.71-27.71-23.19-62.36-21.64-85.76-7.44-21.96,13.33-37.91,41.7-34.71,62.39h47.4Z"/>
              </g>
            </g>
            <g class="cls-6">
              <g class="cls-9">
                <path class="cls-3" d="M354.59,138.95c11.29-34.47,36.19-54.97,71.98-60.58,29.17-4.57,54.64,4.61,75.93,25.11,3.82,3.67,7.45,7.53,11.26,11.22,9.5,9.2,23.05,9.09,32.52-.16,5.73-5.6,11.14-11.64,17.39-16.6,27.38-21.74,57.96-27.02,90.32-13.94,32.18,13.01,50.92,37.89,55.29,72.34,3.51,27.64-4.68,52.38-24.36,72.26-50.58,51.09-101.59,101.76-152.43,152.59-.73.73-1.53,1.41-3.22,2.95-1.19-1.6-1.96-2.95-3.02-4.01-49.86-49.9-99.92-99.59-149.54-149.72-25.54-25.81-33.41-57-22.12-91.46M497.49,415.61c19.38,19.38,45.46,19.54,64.83.21,50.87-50.79,101.82-101.5,152.46-152.52,33.84-34.1,46.98-75.37,38.06-122.51-16.15-85.35-108.43-132.67-187.83-97.02-12.77,5.73-24.31,13.4-34.87,22.83-1.27-.98-2.34-1.78-3.38-2.62-34.5-28.2-73.76-38.68-117.15-28.55-50.46,11.78-84.55,43.26-99.25,92.88-14.79,49.93-3.6,95.34,32.87,132.74,50.82,52.11,102.78,103.1,154.25,154.57"/>
              </g>
            </g>
            <g class="cls-6">
              <g class="cls-8">
                <path class="cls-4" d="M407.74,223.81c-.2,62.68-52.88,120.12-117.68,128.29-5.94.62-18.1,1.18-27.16,1.26-20.89.17-41.78.05-62.67.05-17.5.14-53.28.11-79.92-.05-7.89-1.76-20.41,3.47-27.95,11.66-1.73,1.79-5.32,5.39-8.01,8.04-4.33,6.67-15.32,9.02-24.54,5.25-7.81-1.59-14.22-11.06-14.32-21.15-.15-14.53-.04-29.06-.04-43.59-.67-21.09-.61-64.19.14-96.26-6.56-39.4,25.26-92.72,71.08-119.09,13.01-9.12,42.41-16.56,65.67-16.63,19.59-.23,59.64-.22,89.46.03,25.14-4.18,66.49,12.03,92.37,36.2,25.61,16.68,45.12,64.14,43.58,105.99M388.76,78.77c-20.67-23.24-73.2-42.31-117.31-42.59-19.19-.44-58.43-.38-87.63.13-8.49-.35-25.43,1.24-37.85,3.55C65.75,52.32.43,130.55.07,214.6c-.09,31.41-.1,95.64-.02,143.47.01,35.88,29.18,66.05,65.15,67.39,14.72,3,38.21-6.58,52.48-21.4,1.76-3.02,7.6-5.43,13.03-5.37,25.27.28,50.55.13,75.82.13,14.22.11,43.29.1,64.93-.02,35.72,5.99,93.59-18,129.26-53.6,74.5-79.37,69.15-198.65-11.96-266.43"/>
                <path class="cls-4" d="M113.78,187.25c0,4.06,16.93,7.35,37.82,7.35h150.79c20.82,0,37.69-3.38,37.69-7.54v-29.76c0-4.12-16.93-7.46-37.82-7.46h-150.84c-20.79,0-37.64,3.4-37.64,7.6v29.82Z"/>
                <path class="cls-4" d="M113.66,277.71c0,4.18,8.48,7.57,18.94,7.57h75.23c10.36,0,18.75-3.4,18.75-7.59v-29.87c0-4.1-8.46-7.42-18.9-7.42h-75.18c-10.41,0-18.84,3.35-18.84,7.49v29.82Z"/>
              </g>
            </g>
          </g>
        </g>
      </g>
    </g>
  </g>
</svg>