<?xml version="1.0" encoding="UTF-8"?>
<svg xmlns="http://www.w3.org/2000/svg" viewBox="0 0 1755.18 1119.87">
  <defs>
    <style>
      .cls-1 {
        mix-blend-mode: multiply;
      }

      .cls-2 {
        stroke: #e53d6b;
      }

      .cls-2, .cls-3, .cls-4 {
        fill: none;
        stroke-linecap: round;
        stroke-linejoin: round;
        stroke-width: 73.83px;
      }

      .cls-3 {
        stroke: #72c1bd;
      }

      .cls-4 {
        stroke: #7759a0;
      }

      .cls-5 {
        isolation: isolate;
      }
    </style>
  </defs>
  <g class="cls-5">
    <g id="Capa_1" data-name="Capa 1">
      <g>
        <g>
          <path class="cls-3" d="m1411.98,352.27l156.82,156.82"/>
          <path class="cls-3" d="m1299.26,778.62l285.22-285.22c11.03-11.03,16.55-16.55,20.52-21.83,25.22-33.51,25.22-79.66,0-113.16-3.97-5.28-9.49-10.79-20.52-21.83h0c-11.03-11.03-16.55-16.55-21.83-20.52-33.51-25.22-79.66-25.22-113.16,0-5.28,3.97-10.79,9.49-21.83,20.52l-285.22,285.22c-16.27,16.27-24.41,24.41-30.23,33.9-5.16,8.42-8.96,17.6-11.27,27.2-2.6,10.83-2.6,22.34-2.6,45.35v44.28c0,17.57,0,26.35,3.42,33.06,3.01,5.9,7.81,10.7,13.71,13.71,6.71,3.42,15.49,3.42,33.06,3.42h44.28c23.01,0,34.52,0,45.35-2.6,9.6-2.31,18.78-6.11,27.2-11.27,9.5-5.82,17.63-13.95,33.9-30.23Z"/>
        </g>
        <path class="cls-2" d="m131.26,632.59l18.86,18.86c62.95,62.95,94.42,94.42,130.71,106.22,31.92,10.37,66.31,10.37,98.24,0,36.29-11.79,67.76-43.27,130.71-106.22l297.02-297.02"/>
        <g class="cls-1">
          <rect class="cls-4" x="503.13" y="286.79" width="702.36" height="546.28" rx="234.12" ry="234.12"/>
          <path class="cls-4" d="m581.17,364.83l8.26,8.26c92.72,92.72,139.07,139.07,192.53,156.44,47.02,15.28,97.67,15.28,144.69,0,53.46-17.37,99.81-63.73,192.53-156.44l8.26-8.26"/>
        </g>
      </g>
    </g>
  </g>
</svg>