<?xml version="1.0" encoding="UTF-8"?>
<svg xmlns="http://www.w3.org/2000/svg" version="1.1" viewBox="0 0 1585.04 675.25">
  <defs>
    <style>
      .cls-1 {
        fill: #775aa1;
      }

      .cls-1, .cls-2, .cls-3 {
        stroke-width: 0px;
      }

      .cls-4 {
        mix-blend-mode: multiply;
      }

      .cls-2 {
        fill: #e63d6c;
      }

      .cls-3 {
        fill: #73c2bd;
      }

      .cls-5 {
        isolation: isolate;
      }
    </style>
  </defs>
  <g class="cls-5">
    <g id="Capa_1" data-name="Capa 1">
      <g>
        <g>
          <path class="cls-3" d="M1445.76,650.13c-12.75,0-25.16-6.54-32.12-18.31l-294.91-499c-10.47-17.72-4.6-40.57,13.12-51.05,17.72-10.47,40.58-4.6,51.05,13.12l294.91,499c10.47,17.72,4.6,40.58-13.12,51.05-5.95,3.52-12.48,5.19-18.93,5.19Z"/>
          <path class="cls-3" d="M1048.8,548.09c-12.75,0-25.16-6.54-32.12-18.31-10.47-17.72-4.6-40.58,13.12-51.05l499-294.91c17.72-10.47,40.58-4.6,51.05,13.12,10.47,17.72,4.6,40.57-13.12,51.05l-499,294.91c-5.95,3.52-12.48,5.19-18.93,5.19Z"/>
        </g>
        <g class="cls-4">
          <path class="cls-2" d="M143.15,648.5c-17.19,0-32.17-2.47-46.22-7.91-40.58-15.71-72.96-47.97-88.84-88.49-18.24-46.56-3.81-103.62,24.94-217.31l19.47-76.99c30.88-122.09,46.38-183.37,86.72-216.01C174.41,13.34,220.13,1.58,264.67,9.55c51.08,9.13,94.21,55.34,180.14,147.4l54.19,58.05c80.02,85.73,120.18,128.76,126.66,178.34,5.64,43.15-7.17,87.01-35.14,120.36-32.15,38.31-89.16,52.97-202.73,82.16h0l-73.65,18.93c-79.36,20.4-131.11,33.7-170.99,33.7ZM237.22,69.23c-21.29,0-42.11,7.26-58.92,20.86-24.26,19.63-38.93,77.64-65.57,182.95l-19.47,76.98c-24.7,97.65-38.3,151.43-27.33,179.43,9.55,24.37,29.02,43.77,53.43,53.22,28.05,10.86,81.78-2.95,179.32-28.03l73.65-18.93c97.54-25.08,151.27-38.89,170.61-61.93,16.82-20.05,24.53-46.43,21.13-72.38-3.9-29.82-41.75-70.38-110.46-144l-54.2-58.06c-74.12-79.41-114.95-123.15-145.67-128.65-5.5-.98-11.02-1.47-16.52-1.47Z"/>
          <path class="cls-2" d="M288.84,394.83c-13.84,0-26.45-9.31-30.06-23.33l-46.6-181.27c-4.27-16.61,5.73-33.54,22.35-37.81,16.62-4.27,33.54,5.73,37.81,22.35l46.6,181.28c4.27,16.61-5.73,33.54-22.35,37.81-2.59.67-5.2.99-7.75.99Z"/>
          <circle class="cls-2" cx="312.17" cy="454.4" r="32.26"/>
        </g>
        <g>
          <g class="cls-4">
            <path class="cls-1" d="M851.1,397.28h-37.06c-74.07,0-111.24,0-144.31-16.85-29.28-14.92-52.64-38.28-67.56-67.56-16.85-33.07-16.85-70.25-16.85-144.31v-80.3c0-17.15,13.9-31.06,31.06-31.06s31.06,13.9,31.06,31.06v80.3c0,64.14,0,96.33,10.08,116.11,8.92,17.52,22.9,31.49,40.42,40.42,19.78,10.08,51.98,10.08,116.11,10.08h37.06c64.14,0,96.33,0,116.11-10.08,17.51-8.92,31.49-22.9,40.42-40.42,10.08-19.78,10.08-51.98,10.08-116.11v-80.3c0-17.15,13.91-31.06,31.06-31.06s31.06,13.9,31.06,31.06v80.3c0,74.07,0,111.24-16.85,144.31-14.92,29.28-38.28,52.64-67.56,67.56-33.07,16.85-70.25,16.85-144.31,16.85Z"/>
            <path class="cls-1" d="M1048.77,675.25c-17.15,0-31.06-13.91-31.06-31.06v-80.3c0-64.14,0-96.33-10.08-116.11-8.92-17.51-22.9-31.49-40.42-40.41-19.79-10.08-51.98-10.08-116.11-10.08h-37.06c-64.14,0-96.33,0-116.11,10.08-17.52,8.92-31.49,22.9-40.42,40.42-10.08,19.78-10.08,51.98-10.08,116.11v80.3c0,17.15-13.9,31.06-31.06,31.06s-31.06-13.91-31.06-31.06v-80.3c0-74.06,0-111.24,16.85-144.31,14.92-29.28,38.28-52.64,67.56-67.56,33.07-16.85,70.25-16.85,144.31-16.85h37.06c74.07,0,111.24,0,144.31,16.85,29.28,14.92,52.64,38.28,67.56,67.56,16.85,33.07,16.85,70.25,16.85,144.32v80.3c0,17.15-13.91,31.06-31.06,31.06Z"/>
            <path class="cls-1" d="M1048.77,211.97h-76.78c-17.15,0-31.06-13.9-31.06-31.06s13.91-31.06,31.06-31.06h76.78c17.15,0,31.06,13.9,31.06,31.06s-13.91,31.06-31.06,31.06Z"/>
            <path class="cls-1" d="M698.94,211.97h-82.57c-17.15,0-31.06-13.9-31.06-31.06s13.9-31.06,31.06-31.06h82.57c17.15,0,31.06,13.9,31.06,31.06s-13.9,31.06-31.06,31.06Z"/>
            <path class="cls-1" d="M1017.88,304.63h-92.2c-17.15,0-31.06-13.9-31.06-31.06s13.91-31.06,31.06-31.06h92.2c17.15,0,31.06,13.9,31.06,31.06s-13.91,31.06-31.06,31.06Z"/>
            <path class="cls-1" d="M770.96,304.63h-123.7c-17.15,0-31.06-13.9-31.06-31.06s13.9-31.06,31.06-31.06h123.7c17.15,0,31.06,13.9,31.06,31.06s-13.9,31.06-31.06,31.06Z"/>
            <path class="cls-1" d="M1017.88,489.94h-370.63c-17.15,0-31.06-13.91-31.06-31.06s13.9-31.06,31.06-31.06h370.63c17.15,0,31.06,13.91,31.06,31.06s-13.91,31.06-31.06,31.06Z"/>
            <path class="cls-1" d="M1017.88,582.6h-370.63c-17.15,0-31.06-13.91-31.06-31.06s13.9-31.06,31.06-31.06h370.63c17.15,0,31.06,13.91,31.06,31.06s-13.91,31.06-31.06,31.06Z"/>
          </g>
          <g class="cls-4">
            <path class="cls-1" d="M865.22,217.45c-3.98,0-8.02-.77-11.92-2.39l-43.42-18.07c-15.84-6.59-23.33-24.77-16.74-40.61,6.59-15.84,24.77-23.33,40.61-16.74l43.42,18.07c15.84,6.59,23.33,24.77,16.74,40.61-4.97,11.94-16.52,19.13-28.69,19.13Z"/>
          </g>
          <g class="cls-4">
            <path class="cls-1" d="M751.08,119.7c-12.79,0-24.77-7.96-29.28-20.7-5.72-16.17,2.74-33.92,18.91-39.64L903.35,1.79c16.17-5.72,33.92,2.74,39.64,18.91,5.72,16.17-2.74,33.92-18.91,39.64l-162.63,57.57c-3.43,1.21-6.92,1.79-10.36,1.79Z"/>
          </g>
        </g>
      </g>
    </g>
  </g>
</svg>