<?xml version="1.0" encoding="UTF-8"?>
<svg xmlns="http://www.w3.org/2000/svg" version="1.1" viewBox="0 0 1567.5 652">
  <defs>
    <style>
      .cls-1 {
        fill: #775aa1;
      }

      .cls-2 {
        fill: #73c2bd;
      }

      .cls-2, .cls-3 {
        mix-blend-mode: multiply;
      }

      .cls-4 {
        isolation: isolate;
      }

      .cls-5 {
        fill: #e63d6c;
      }
    </style>
  </defs>
  <!-- Generator: Adobe Illustrator 28.6.0, SVG Export Plug-In . SVG Version: 1.2.0 Build 709)  -->
  <g class="cls-4">
    <g id="Capa_1">
      <path class="cls-1" d="M937.7,275.7h-325.9c-20.2,0-36.5-16.3-36.5-36.5s16.3-36.5,36.5-36.5h325.9c20.2,0,36.5,16.3,36.5,36.5s-16.3,36.5-36.5,36.5Z"/>
      <path class="cls-1" d="M937.7,402.1h-325.9c-20.2,0-36.5-16.3-36.5-36.5s16.3-36.5,36.5-36.5h325.9c20.2,0,36.5,16.3,36.5,36.5s-16.3,36.5-36.5,36.5Z"/>
      <path class="cls-1" d="M937.7,528.5h-325.9c-20.2,0-36.5-16.3-36.5-36.5s16.3-36.5,36.5-36.5h325.9c20.2,0,36.5,16.3,36.5,36.5s-16.3,36.5-36.5,36.5Z"/>
      <path class="cls-1" d="M949.6,652h-349.7c-73.4,0-133.2-59.7-133.2-133.2V100.7c0-12.8,6.7-24.7,17.7-31.3,11-6.6,24.6-7,35.9-1l70.6,37.5,28.5-81.5c4.9-13.9,17.6-23.6,32.4-24.4,14.7-.8,28.5,7.3,34.9,20.6l60.2,124.7,79.6-78.8c13.6-13.5,35.4-14.1,49.8-1.5l63.2,55.6,83.7-67.7c10.9-8.8,26-10.6,38.7-4.6,12.7,6.1,20.8,18.9,20.8,32.9v437.5c0,73.4-59.7,133.2-133.2,133.2ZM539.7,161.4v357.4c0,33.2,27,60.2,60.2,60.2h349.7c33.2,0,60.2-27,60.2-60.2V157.8l-48.2,39c-13.8,11.2-33.7,10.8-47.1-1l-60.7-53.5-91.7,90.8c-8.4,8.3-20.2,12-31.9,10-11.6-2-21.6-9.5-26.7-20.1l-44.1-91.4-13.5,38.6c-3.5,10.1-11.2,18.1-21.1,21.9-9.9,3.9-21,3.2-30.4-1.7l-54.6-29Z"/>
      <g class="cls-3">
        <path class="cls-5" d="M128.4,642.8c-18.9-11.2-25.2-35.6-14-54.5L429,56c11.2-18.9,35.6-25.2,54.5-14,18.9,11.2,25.2,35.6,14,54.5L182.8,628.8c-7.4,12.6-20.7,19.5-34.3,19.5s-13.8-1.8-20.2-5.5Z"/>
        <path class="cls-5" d="M551.8,533.9L19.5,219.3c-18.9-11.2-25.2-35.6-14-54.5,11.2-18.9,35.6-25.2,54.5-14l532.3,314.6c18.9,11.2,25.2,35.6,14,54.5-7.4,12.6-20.7,19.5-34.3,19.5s-13.8-1.8-20.2-5.5Z"/>
      </g>
      <path class="cls-2" d="M1552.6,323.1c-23.7-63.6-65.7-118-121.4-157.3-56.9-40.2-124-61.5-194-61.5s-137,21.3-194,61.5c-55.7,39.3-97.6,93.7-121.4,157.3-3.1,8.2-3.1,17.3,0,25.5,23.7,63.6,65.7,118,121.4,157.3,56.9,40.2,124,61.5,194,61.5s137-21.3,194-61.5c55.7-39.3,97.6-93.7,121.4-157.3,3.1-8.2,3.1-17.3,0-25.5ZM1237.2,432.4c-53.3,0-96.6-43.3-96.6-96.6s43.3-96.6,96.6-96.6,96.6,43.3,96.6,96.6-43.3,96.6-96.6,96.6ZM995.4,335.8c19.2-44.3,50.1-82.3,90-110.5,18.4-13,38.2-23.5,59-31.3-46.1,30.3-76.7,82.6-76.7,141.8s30.5,111.5,76.7,141.8c-20.7-7.8-40.5-18.3-59-31.3-39.8-28.2-70.7-66.2-90-110.5ZM1389.1,446.3c-18.4,13-38.2,23.5-59,31.3,46.1-30.3,76.7-82.6,76.7-141.8s-30.5-111.5-76.7-141.8c20.7,7.8,40.5,18.3,59,31.3,39.8,28.2,70.7,66.2,90,110.5-19.2,44.3-50.1,82.3-90,110.5Z"/>
    </g>
  </g>
</svg>